HIERARCHY
ROOT Root
{
  OFFSET 0.0 0.0 0.0
  CHANNELS 6 Xposition Yposition Zposition Zrotation Yrotation Xrotation
  JOINT Hips
  {
    OFFSET 0.0 100.0 0.0
    CHANNELS 6 Xposition Yposition Zposition Zrotation Yrotation Xrotation
    JOINT Spine1
    {
      OFFSET 5.003913 -0.037094 -0.013727
      CHANNELS 3 Zrotation Yrotation Xrotation
      JOINT Spine2
      {
        OFFSET 7.125363 -1e-06 0.0
        CHANNELS 3 Zrotation Yrotation Xrotation
        JOINT Chest
        {
          OFFSET 7.594027 1e-06 0.0
          CHANNELS 3 Zrotation Yrotation Xrotation
          JOINT Neck1
          {
            OFFSET 26.313086 -0.460272 -0.181672
            CHANNELS 3 Zrotation Yrotation Xrotation
            JOINT Neck2
            {
              OFFSET 8.045911 0.0 0.0
              CHANNELS 3 Zrotation Yrotation Xrotation
              JOINT Head
              {
                OFFSET 6.432774 0.0 0.0
                CHANNELS 3 Zrotation Yrotation Xrotation
                JOINT HeadEnd
                {
                  OFFSET 16.169773 0.06451 0.00362
                  CHANNELS 3 Zrotation Yrotation Xrotation
                }
                JOINT Jaw
                {
                  OFFSET 0.108741 3.12938 0.002639
                  CHANNELS 3 Zrotation Yrotation Xrotation
                }
                JOINT LeftEye
                {
                  OFFSET 4.45173 8.166359 3.206392
                  CHANNELS 3 Zrotation Yrotation Xrotation
                }
                JOINT RightEye
                {
                  OFFSET 4.436895 8.135758 -3.222429
                  CHANNELS 3 Zrotation Yrotation Xrotation
                }
              }
            }
          }
          JOINT LeftShoulder
          {
            OFFSET 23.218927 5.195579 1.621656
            CHANNELS 3 Zrotation Yrotation Xrotation
            JOINT LeftArm
            {
              OFFSET 15.902118 2e-06 -2e-06
              CHANNELS 3 Zrotation Yrotation Xrotation
              JOINT LeftForeArm
              {
                OFFSET 28.739307 0.0 -1e-06
                CHANNELS 3 Zrotation Yrotation Xrotation
                JOINT LeftHand
                {
                  OFFSET 27.093981 -4e-06 0.0
                  CHANNELS 3 Zrotation Yrotation Xrotation
                  JOINT LeftHandThumb1
                  {
                    OFFSET 2.276781 3.380274 0.83384
                    CHANNELS 3 Zrotation Yrotation Xrotation
                    JOINT LeftHandThumb2
                    {
                      OFFSET 4.705309 -1e-06 -1e-06
                      CHANNELS 3 Zrotation Yrotation Xrotation
                      JOINT LeftHandThumb3
                      {
                        OFFSET 2.798515 0.0 3e-06
                        CHANNELS 3 Zrotation Yrotation Xrotation
                        JOINT LeftHandThumbEnd
                        {
                          OFFSET 3.180793 4e-06 -4e-06
                          CHANNELS 3 Zrotation Yrotation Xrotation
                        }
                      }
                    }
                  }
                  JOINT LeftHandIndex1
                  {
                    OFFSET 3.247786 2.352677 0.137192
                    CHANNELS 3 Zrotation Yrotation Xrotation
                    JOINT LeftHandIndex2
                    {
                      OFFSET 6.367095 1e-06 0.0
                      CHANNELS 3 Zrotation Yrotation Xrotation
                      JOINT LeftHandIndex3
                      {
                        OFFSET 3.662364 0.0 0.0
                        CHANNELS 3 Zrotation Yrotation Xrotation
                        JOINT LeftHandIndex4
                        {
                          OFFSET 2.329242 4e-06 -4e-06
                          CHANNELS 3 Zrotation Yrotation Xrotation
                          JOINT LeftHandIndexEnd
                          {
                            OFFSET 2.767823 1e-06 0.0
                            CHANNELS 3 Zrotation Yrotation Xrotation
                          }
                        }
                      }
                    }
                  }
                  JOINT LeftHandMiddle1
                  {
                    OFFSET 3.163612 0.945023 -0.406112
                    CHANNELS 3 Zrotation Yrotation Xrotation
                    JOINT LeftHandMiddle2
                    {
                      OFFSET 6.276789 3e-06 0.0
                      CHANNELS 3 Zrotation Yrotation Xrotation
                      JOINT LeftHandMiddle3
                      {
                        OFFSET 4.35652 -1e-06 4e-06
                        CHANNELS 3 Zrotation Yrotation Xrotation
                        JOINT LeftHandMiddle4
                        {
                          OFFSET 2.996877 0.0 8e-06
                          CHANNELS 3 Zrotation Yrotation Xrotation
                          JOINT LeftHandMiddleEnd
                          {
                            OFFSET 2.323256 3e-06 -4e-06
                            CHANNELS 3 Zrotation Yrotation Xrotation
                          }
                        }
                      }
                    }
                  }
                  JOINT LeftHandRing1
                  {
                    OFFSET 2.882606 -0.309162 0.107445
                    CHANNELS 3 Zrotation Yrotation Xrotation
                    JOINT LeftHandRing2
                    {
                      OFFSET 6.033198 0.0 4e-06
                      CHANNELS 3 Zrotation Yrotation Xrotation
                      JOINT LeftHandRing3
                      {
                        OFFSET 4.350578 3e-06 0.0
                        CHANNELS 3 Zrotation Yrotation Xrotation
                        JOINT LeftHandRing4
                        {
                          OFFSET 2.651321 2e-06 -7e-06
                          CHANNELS 3 Zrotation Yrotation Xrotation
                          JOINT LeftHandRingEnd
                          {
                            OFFSET 1.937663 1e-06 -4e-06
                            CHANNELS 3 Zrotation Yrotation Xrotation
                          }
                        }
                      }
                    }
                  }
                  JOINT LeftHandPinky1
                  {
                    OFFSET 2.865315 -1.525436 0.575687
                    CHANNELS 3 Zrotation Yrotation Xrotation
                    JOINT LeftHandPinky2
                    {
                      OFFSET 5.54936 1e-06 -8e-06
                      CHANNELS 3 Zrotation Yrotation Xrotation
                      JOINT LeftHandPinky3
                      {
                        OFFSET 3.070974 0.0 -4e-06
                        CHANNELS 3 Zrotation Yrotation Xrotation
                        JOINT LeftHandPinky4
                        {
                          OFFSET 1.549672 1e-06 0.0
                          CHANNELS 3 Zrotation Yrotation Xrotation
                          JOINT LeftHandPinkyEnd
                          {
                            OFFSET 1.952123 0.0 0.0
                            CHANNELS 3 Zrotation Yrotation Xrotation
                          }
                        }
                      }
                    }
                  }
                }
              }
            }
          }
          JOINT RightShoulder
          {
            OFFSET 23.161716 5.296122 -1.380114
            CHANNELS 3 Zrotation Yrotation Xrotation
            JOINT RightArm
            {
              OFFSET -16.027195 -2e-06 1.1e-05
              CHANNELS 3 Zrotation Yrotation Xrotation
              JOINT RightForeArm
              {
                OFFSET -28.736639 4e-06 2e-06
                CHANNELS 3 Zrotation Yrotation Xrotation
                JOINT RightHand
                {
                  OFFSET -27.133619 6e-06 0.0
                  CHANNELS 3 Zrotation Yrotation Xrotation
                  JOINT RightHandThumb1
                  {
                    OFFSET -2.274328 -3.351035 -0.83067
                    CHANNELS 3 Zrotation Yrotation Xrotation
                    JOINT RightHandThumb2
                    {
                      OFFSET -4.703594 -3e-06 2e-06
                      CHANNELS 3 Zrotation Yrotation Xrotation
                      JOINT RightHandThumb3
                      {
                        OFFSET -2.794935 -4e-06 -3e-06
                        CHANNELS 3 Zrotation Yrotation Xrotation
                        JOINT RightHandThumbEnd
                        {
                          OFFSET -3.183852 4e-06 1e-06
                          CHANNELS 3 Zrotation Yrotation Xrotation
                        }
                      }
                    }
                  }
                  JOINT RightHandIndex1
                  {
                    OFFSET -3.253496 -2.33755 -0.127667
                    CHANNELS 3 Zrotation Yrotation Xrotation
                    JOINT RightHandIndex2
                    {
                      OFFSET -6.344434 0.0 0.0
                      CHANNELS 3 Zrotation Yrotation Xrotation
                      JOINT RightHandIndex3
                      {
                        OFFSET -3.654871 0.0 -8e-06
                        CHANNELS 3 Zrotation Yrotation Xrotation
                        JOINT RightHandIndex4
                        {
                          OFFSET -2.327586 -1e-06 0.0
                          CHANNELS 3 Zrotation Yrotation Xrotation
                          JOINT RightHandIndexEnd
                          {
                            OFFSET -2.770001 3e-06 8e-06
                            CHANNELS 3 Zrotation Yrotation Xrotation
                          }
                        }
                      }
                    }
                  }
                  JOINT RightHandMiddle1
                  {
                    OFFSET -3.168223 -0.944764 0.411762
                    CHANNELS 3 Zrotation Yrotation Xrotation
                    JOINT RightHandMiddle2
                    {
                      OFFSET -6.266691 -1e-06 -4e-06
                      CHANNELS 3 Zrotation Yrotation Xrotation
                      JOINT RightHandMiddle3
                      {
                        OFFSET -4.348901 0.0 0.0
                        CHANNELS 3 Zrotation Yrotation Xrotation
                        JOINT RightHandMiddle4
                        {
                          OFFSET -3.00024 2e-06 -4e-06
                          CHANNELS 3 Zrotation Yrotation Xrotation
                          JOINT RightHandMiddleEnd
                          {
                            OFFSET -2.321477 -4e-06 -4e-06
                            CHANNELS 3 Zrotation Yrotation Xrotation
                          }
                        }
                      }
                    }
                  }
                  JOINT RightHandRing1
                  {
                    OFFSET -2.885654 0.293261 -0.119232
                    CHANNELS 3 Zrotation Yrotation Xrotation
                    JOINT RightHandRing2
                    {
                      OFFSET -6.032835 -1e-06 -4e-06
                      CHANNELS 3 Zrotation Yrotation Xrotation
                      JOINT RightHandRing3
                      {
                        OFFSET -4.33881 0.0 -4e-06
                        CHANNELS 3 Zrotation Yrotation Xrotation
                        JOINT RightHandRing4
                        {
                          OFFSET -2.654903 -4e-06 -4e-06
                          CHANNELS 3 Zrotation Yrotation Xrotation
                          JOINT RightHandRingEnd
                          {
                            OFFSET -1.935122 0.0 4e-06
                            CHANNELS 3 Zrotation Yrotation Xrotation
                          }
                        }
                      }
                    }
                  }
                  JOINT RightHandPinky1
                  {
                    OFFSET -2.866241 1.503904 -0.60527
                    CHANNELS 3 Zrotation Yrotation Xrotation
                    JOINT RightHandPinky2
                    {
                      OFFSET -5.553177 -2e-06 0.0
                      CHANNELS 3 Zrotation Yrotation Xrotation
                      JOINT RightHandPinky3
                      {
                        OFFSET -3.062664 -1e-06 -4e-06
                        CHANNELS 3 Zrotation Yrotation Xrotation
                        JOINT RightHandPinky4
                        {
                          OFFSET -1.546529 2e-06 4e-06
                          CHANNELS 3 Zrotation Yrotation Xrotation
                          JOINT RightHandPinkyEnd
                          {
                            OFFSET -1.952341 0.0 -4e-06
                            CHANNELS 3 Zrotation Yrotation Xrotation
                          }
                        }
                      }
                    }
                  }
                }
              }
            }
          }
        }
      }
    }
    JOINT LeftLeg
    {
      OFFSET -8.443107 2.567604 10.043214
      CHANNELS 3 Zrotation Yrotation Xrotation
      JOINT LeftShin
      {
        OFFSET 43.229198 1e-06 -1e-06
        CHANNELS 3 Zrotation Yrotation Xrotation
        JOINT LeftFoot
        {
          OFFSET 42.298611 1e-06 1e-06
          CHANNELS 3 Zrotation Yrotation Xrotation
          JOINT LeftToeBase
          {
            OFFSET 14.165858 1e-06 0.0
            CHANNELS 3 Zrotation Yrotation Xrotation
            JOINT LeftToeEnd
            {
              OFFSET 6.7141 -0.234461 0.0
              CHANNELS 3 Zrotation Yrotation Xrotation
            }
          }
        }
      }
    }
    JOINT RightLeg
    {
      OFFSET -8.303923 2.592729 -10.047278
      CHANNELS 3 Zrotation Yrotation Xrotation
      JOINT RightShin
      {
        OFFSET -43.369682 0.0 1e-06
        CHANNELS 3 Zrotation Yrotation Xrotation
        JOINT RightFoot
        {
          OFFSET -42.260784 4e-06 2e-06
          CHANNELS 3 Zrotation Yrotation Xrotation
          JOINT RightToeBase
          {
            OFFSET -14.222245 -2e-06 -1e-06
            CHANNELS 3 Zrotation Yrotation Xrotation
            JOINT RightToeEnd
            {
              OFFSET -6.660062 0.232574 -2e-06
              CHANNELS 3 Zrotation Yrotation Xrotation
            }
          }
        }
      }
    }
  }
}
MOTION
Frames: 4
Frame Time: 0.03333333333333333
0.0 0.0 0.0 0.0 -0.0 0.0 -1.669686 48.74102 6.037716 92.158775 -65.884644 86.801529 10.119783 -1.483167 -1.274306 -5.579073 -1.06573 -0.362378 16.71357 0.451361 -1.923042 29.923523 -2.009596 3.301641 -2.89181 -0.666272 1.90315 -25.169245 -1.364686 1.23386 6e-06 0.0 -0.0 -0.253261 0.043217 0.002329 -0.306309 0.141019 0.013271 -0.312734 -0.048806 -0.024201 -50.097637 -58.558575 52.200291 97.845467 -8.268704 -29.735899 11.671417 -1.338126 -0.007252 31.77519 81.18174 33.532085 17.636637 -26.322733 52.411186 -19.466663 -14.395597 29.410389 -0.0 -8.774822 -2e-06 15.749042 -17.899336 6.811373 -0.609776 -1.795654 -3.889327 -4.80709 -11.046811 -2.93785 4e-06 -20.976021 1e-06 -5.019974 -25.033562 -4.031879 7e-06 1e-06 -0.0 -10.634536 -5.686971 -3.565587 10.573274 -17.922955 -3.113899 3e-06 -13.82121 1e-06 -0.501779 -31.181505 -4.027016 -11.106799 -59.280659 7.942756 -13.982717 -7.150198 -2.875041 13.772733 -8.401495 -3.21824 0.347732 -34.211555 0.771655 -0.963029 -17.73337 2.621018 -0.0 -1e-06 -0.0 -17.346422 -20.095219 -4.20178 21.757565 -1.638376 3.866428 1e-06 -6.338826 1e-06 -1.69759 -22.591747 -6.194006 -0.0 -8e-06 -3e-06 138.520172 -69.206276 43.181023 101.575874 -2.230799 -18.401569 3.807065 -1.05905 -0.061771 43.322639 80.634941 39.061008 22.182106 -20.375898 49.933327 -16.701817 -16.74353 28.476536 -2e-06 -12.690601 0.0 16.582602 -17.357592 2.431721 -0.105919 -1.513856 -4.275882 -5.03904 -5.61287 -2.953557 4e-06 -11.020526 -2e-06 -6.111297 -15.895334 -3.840469 -0.0 1e-06 -1e-06 -10.283369 -5.680288 -4.341838 11.028294 -11.302406 -2.372634 -1.384268 -14.23858 -6.320122 -0.625437 -26.924196 -3.827604 -4.198974 -49.030659 -4.213344 -13.708524 -7.363476 -3.720939 18.14115 -14.05274 -3.242676 6e-06 -18.78727 -2e-06 -0.429713 -8.456044 2.555504 0.0 0.0 -0.0 -15.923532 -20.094484 -5.473585 30.41921 -7.190827 1.735924 3e-06 -8.162922 -0.0 -1.861901 -22.861473 -6.167942 -0.0 -3e-06 -1e-06 113.413383 -5.190242 -0.381645 107.336906 0.044994 0.2989 -60.427757 13.026505 -13.261065 -14.952606 1.410951 2.538089 -0.999999 0.0 0.0 -67.670547 -1.319748 5.542231 112.101379 -0.0515 0.175114 -81.966347 3.840042 -2.796744 -23.543045 0.936201 1.310581 -1.000002 -0.0 0.0 
0.0 0.0 0.0 0.0 -0.0 0.0 -1.546172 48.732071 6.151323 91.958183 -65.976517 86.964996 10.012654 -1.430407 -1.231057 -5.653879 -1.036673 -0.328264 16.838917 0.459904 -1.839917 30.033957 -2.123558 3.165844 -2.883406 -0.654122 1.874338 -25.110424 -1.425986 1.184226 6e-06 -0.0 -0.0 -0.251719 -0.006279 -0.000887 -0.293336 0.088913 0.006614 -0.312416 -0.092692 -0.026095 -50.152668 -58.570007 52.610764 98.247162 -7.893958 -30.200167 11.187642 -1.363015 -0.01573 34.883404 80.887924 36.124023 17.636635 -26.322729 52.41119 -19.466656 -14.395597 29.410381 0.0 -8.77482 -3e-06 15.700353 -18.002287 6.879827 -0.609777 -1.795654 -3.889328 -4.80709 -11.046811 -2.937849 3e-06 -20.976015 -0.0 -5.01997 -25.033556 -4.031882 6e-06 -0.0 1e-06 -10.634536 -5.686972 -3.565587 10.573272 -17.922949 -3.113899 3e-06 -13.821208 0.0 -0.501778 -31.181505 -4.027016 -11.083328 -59.442654 7.943018 -13.982716 -7.150198 -2.875042 13.772729 -8.401491 -3.218239 0.347732 -34.211544 0.771655 -0.963029 -17.733366 2.621019 -0.0 -0.0 -0.0 -17.346422 -20.095217 -4.20178 21.757557 -1.638376 3.866429 1e-06 -6.338821 1e-06 -1.697591 -22.591743 -6.194005 0.0 -5e-06 -2e-06 138.350586 -69.102028 43.534424 101.569473 -2.065402 -18.398809 3.755814 -1.019611 -0.056243 43.405949 80.303284 39.043594 22.182121 -20.375898 49.933327 -16.701815 -16.743528 28.476532 -2e-06 -12.690603 -1e-06 16.516239 -17.31036 2.484411 -0.10592 -1.513856 -4.275882 -5.039041 -5.612872 -2.953557 4e-06 -11.020525 -2e-06 -6.111297 -15.895334 -3.840472 -1e-06 -3e-06 0.0 -10.283371 -5.68029 -4.341839 11.028295 -11.302404 -2.372634 -1.384268 -14.238581 -6.320122 -0.625437 -26.924196 -3.827601 -4.188398 -49.155945 -4.129436 -13.708526 -7.363477 -3.720941 18.141151 -14.052739 -3.242674 6e-06 -18.78727 -1e-06 -0.429711 -8.456043 2.555504 0.0 -1e-06 0.0 -15.923536 -20.094484 -5.473587 30.419214 -7.190827 1.735928 4e-06 -8.162922 1e-06 -1.861901 -22.861473 -6.167942 -1e-06 -2e-06 -1e-06 113.441124 -5.132386 -0.443518 107.221664 -0.000541 0.306958 -60.371368 12.896803 -13.096691 -14.966533 1.454683 2.509737 -0.999999 0.0 -0.0 -67.613121 -1.340828 5.551786 111.905785 -0.069854 0.149682 -81.772064 3.850037 -2.776261 -23.254593 0.925872 1.327319 -1.000001 0.0 -0.0 
0.0 0.0 0.0 0.0 -0.0 0.0 -1.442632 48.718082 6.242787 91.959694 -66.020508 87.012276 9.901502 -1.397382 -1.18038 -5.716444 -1.004777 -0.283109 16.962954 0.457136 -1.805611 30.176752 -2.182748 3.029557 -2.873219 -0.688184 1.846047 -25.190083 -1.565837 1.107743 6e-06 0.0 0.0 -0.24552 -0.040959 -0.002107 -0.325986 0.049725 -0.00668 -0.345396 -0.121162 -0.018383 -49.906563 -58.609661 52.600296 98.478592 -7.692379 -30.274462 10.891223 -1.325589 -0.008439 35.051941 80.756454 35.896069 17.63662 -26.322729 52.411194 -19.466661 -14.395597 29.410393 0.0 -8.774817 -1e-06 15.6847 -18.016956 6.884559 -0.609777 -1.795653 -3.889328 -4.807087 -11.046808 -2.93785 4e-06 -20.976015 -0.0 -5.019969 -25.033554 -4.03188 6e-06 -1e-06 1e-06 -10.634533 -5.686969 -3.565587 10.573272 -17.922947 -3.113901 3e-06 -13.821205 1e-06 -0.501776 -31.181494 -4.027016 -10.973267 -59.510094 7.886245 -13.982712 -7.150196 -2.875042 13.77273 -8.401491 -3.218242 0.347735 -34.21154 0.771654 -0.963028 -17.733364 2.621018 -0.0 0.0 0.0 -17.346415 -20.095211 -4.201783 21.757555 -1.638378 3.866427 1e-06 -6.338823 1e-06 -1.697588 -22.591742 -6.194006 -0.0 -6e-06 -2e-06 138.400864 -69.060364 43.666553 101.376587 -1.9029 -18.20583 3.798152 -1.031779 -0.054881 43.558357 80.210358 39.510704 22.18211 -20.375893 49.933319 -16.701815 -16.743528 28.476532 -2e-06 -12.690601 0.0 16.513817 -17.219143 2.523185 -0.10592 -1.513856 -4.275881 -5.03904 -5.612871 -2.953557 4e-06 -11.020524 -2e-06 -6.111297 -15.895332 -3.84047 0.0 1e-06 -0.0 -10.283369 -5.680288 -4.341839 11.028294 -11.302404 -2.372635 -1.384268 -14.238581 -6.32012 -0.625438 -26.924194 -3.827601 -4.14688 -49.207325 -4.075413 -13.708525 -7.363475 -3.720939 18.14115 -14.052739 -3.242676 7e-06 -18.787268 -2e-06 -0.429713 -8.456044 2.555504 0.0 -1e-06 -0.0 -15.923532 -20.094482 -5.473584 30.419207 -7.19083 1.735922 4e-06 -8.162925 -1e-06 -1.8619 -22.861471 -6.167942 -0.0 -2e-06 -1e-06 113.515099 -4.998477 -0.521491 107.142036 -0.00733 0.318924 -60.520039 12.746162 -13.007332 -15.184865 1.473904 2.494583 -0.999999 0.0 1e-06 -67.524124 -1.434905 5.649381 111.787544 -0.067623 0.151917 -81.775146 3.873752 -2.857271 -23.201513 0.91727 1.338894 -1.0 0.0 -0.0 
0.0 0.0 0.0 0.0 -0.0 0.0 -1.363332 48.702076 6.30057 91.974174 -66.085609 87.068367 9.7998 -1.362061 -1.133788 -5.775289 -0.9797 -0.239336 17.038164 0.498233 -1.798102 30.275278 -2.291134 2.889663 -2.859901 -0.711342 1.799594 -25.310539 -1.667588 1.055611 6e-06 0.0 -0.0 -0.242639 -0.069025 -0.003109 -0.378083 0.021095 -0.022106 -0.386851 -0.149136 -0.007257 -49.679279 -58.654598 52.577847 98.617409 -7.562887 -30.336521 10.76174 -1.289642 -0.010204 35.247902 80.71608 36.07098 17.636625 -26.322731 52.411205 -19.46666 -14.395598 29.410395 -2e-06 -8.774821 -1e-06 15.663955 -17.981009 6.878935 -0.609776 -1.795653 -3.889328 -4.807088 -11.046811 -2.937851 5e-06 -20.976013 -1e-06 -5.019969 -25.033552 -4.031882 6e-06 -0.0 0.0 -10.634533 -5.68697 -3.565588 10.573274 -17.922949 -3.113901 3e-06 -13.821206 1e-06 -0.501777 -31.181498 -4.027014 -10.899814 -59.523605 7.835492 -13.982713 -7.150197 -2.875043 13.77273 -8.401491 -3.218243 0.347734 -34.21154 0.771655 -0.963029 -17.733366 2.62102 -0.0 0.0 -0.0 -17.346416 -20.095215 -4.201783 21.757561 -1.638375 3.866428 1e-06 -6.338825 1e-06 -1.697589 -22.591742 -6.194006 -0.0 -7e-06 -2e-06 138.508835 -68.990112 43.672249 101.163116 -1.833578 -17.991882 3.937738 -1.009198 -0.056671 43.529976 80.268349 39.932671 22.182108 -20.375893 49.933319 -16.701813 -16.74353 28.476534 -2e-06 -12.690601 0.0 16.54664 -17.149187 2.549149 -0.105919 -1.513856 -4.275882 -5.03904 -5.612871 -2.953556 4e-06 -11.020523 -2e-06 -6.111297 -15.895329 -3.84047 0.0 -0.0 -0.0 -10.283369 -5.680288 -4.341838 11.028294 -11.302403 -2.372633 -1.384268 -14.238575 -6.32012 -0.625438 -26.924191 -3.827601 -4.120325 -49.261131 -4.01711 -13.708523 -7.363474 -3.72094 18.14115 -14.052737 -3.242675 6e-06 -18.787266 -1e-06 -0.429713 -8.456044 2.555504 0.0 -1e-06 -0.0 -15.923532 -20.094479 -5.473585 30.41921 -7.190825 1.735923 3e-06 -8.162921 0.0 -1.861902 -22.861467 -6.16794 -1e-06 -3e-06 -1e-06 113.524529 -4.845956 -0.54197 107.124084 0.001254 0.329443 -60.813915 12.686151 -13.015797 -15.543431 1.479772 2.486996 -0.999999 0.0 0.0 -67.494568 -1.531475 5.768568 111.733658 -0.025391 0.156519 -81.901772 3.870948 -3.001512 -23.338133 0.913887 1.347063 -1.000003 0.0 -0.0 
